<svg xmlns="http://www.w3.org/2000/svg" width="766" height="693" fill="none"><path fill="url(#a)" fill-rule="evenodd" d="M164.002 348.076h174.313V137.582L302.838 102H164.002v246.076Z" clip-rule="evenodd"/><path fill="#000" fill-opacity=".1" fill-rule="evenodd" d="m302.889 137.529 17.666-17.749 17.76 17.749v35.588l-35.426-35.588Z" clip-rule="evenodd"/><path fill="#0080CD" fill-rule="evenodd" d="M338.313 137.558h-35.426V102l35.426 35.558Z" clip-rule="evenodd"/><g clip-path="url(#b)"><path fill="#0080CD" d="M302 173.109c0-2.811-1.988-6.259-4.417-7.664l-42.166-24.391c-2.429-1.405-6.405-1.405-8.834 0l-42.166 24.391c-2.43 1.405-4.417 4.854-4.417 7.664v48.782c0 2.81 1.988 6.259 4.417 7.664l42.166 24.391c2.429 1.405 6.405 1.405 8.834 0l42.166-24.391c1.215-.703 2.319-1.916 3.119-3.305.801-1.389 1.298-2.954 1.298-4.359v-48.782Z"/><path fill="#00549E" d="m255.416 253.946 42.167-24.391c1.214-.703 2.318-1.916 3.119-3.305l-49.703-28.75-49.702 28.75c.8 1.389 1.905 2.603 3.119 3.305l42.167 24.391c2.429 1.405 6.404 1.405 8.833 0Z"/><path fill="#fff" d="M251 231.564c-18.748 0-34-15.281-34-34.064s15.252-34.064 34-34.064c12.097 0 23.38 6.522 29.444 17.021l-14.715 8.531c-3.035-5.255-8.679-8.52-14.729-8.52-9.374 0-17 7.64-17 17.032 0 9.391 7.626 17.032 17 17.032 6.051 0 11.695-3.265 14.73-8.521l14.715 8.53c-6.064 10.501-17.347 17.023-29.445 17.023Z"/><path fill="#fff" d="M284.999 195.608h-3.778v-3.785h-3.777v3.785h-3.778v3.784h3.778v3.785h3.777v-3.785h3.778v-3.784ZM299.167 195.608h-3.778v-3.785h-3.777v3.785h-3.778v3.784h3.778v3.785h3.777v-3.785h3.778v-3.784Z"/></g><mask id="c" width="805" height="710" x="30" y="-57" maskUnits="userSpaceOnUse" style="mask-type:alpha"><path fill="#89D3DF" d="m522.239-57-38.454 72.03-87.131-6.87 53.909 68.938-35.534 66.42-91.39-141.084 30.18-49.128L522.239-57Z"/><path fill="#89D3DF" fill-rule="evenodd" d="M834.866 326.401h-.001l-72.649 149.9-59.385-76.153 36.627-47.866-61.086 16.49 24.459 31.376 59.385 76.153-125.099 10.078-58.655-90.582-232.43 62.984L255.86 651.51l-113.295 1.489-.001.001L30 544.324 74.052 407.02 294.8 368.428l.002-.001L483.788 15.03 522.242-57l28.963 77.298-54.398 116.12 135.321 173.148.001.001 161.363-28.057 41.373 44.89.001.001ZM151.691 511.344l77.882-21.071-39.183 73.289-.001.001-38.698-52.219Zm308.974-297.399-64.008 136.732 137.022-23.934h.244l-73.258-112.798Z" clip-rule="evenodd"/></mask><g mask="url(#c)"><g filter="url(#d)"><path fill="#258B74" d="m739.459 352.28-36.629 47.868 59.385 76.153 72.65-149.901-95.406 25.88Z"/><path fill="#63C1A0" d="m396.653 8.16-73.014-5.726 91.39 141.084 35.533-66.42L396.653 8.16ZM762.217 476.302l-59.386-76.154-24.46-31.377-46.242-59.205-.244.115.244-.115-135.321-173.148-36.142 77.527 73.258 112.799h-.243l44.782 69.053 58.655 90.582 32.857-43.058-32.857 43.058 125.099-10.077Z"/><path fill="#331433" d="M151.691 511.344 30 544.324 142.564 653l47.825-89.437-38.698-52.219Z"/><path fill="#E01A59" d="M396.655 350.679 294.8 368.429 74.052 407.021 30 544.325l121.691-32.98 77.882-21.071 116.459-31.492 232.43-62.984-44.783-69.053-137.024 23.934ZM793.491 281.51l-161.362 28.057 46.243 59.205 61.088-16.491 95.406-25.88-41.375-44.891Z"/><path fill="#ECB32D" d="m551.206 20.299-67.417-5.268L450.567 77.1l-35.533 66.419-120.231 224.91 101.855-17.75 64.01-136.732 36.142-77.528 54.396-116.119ZM229.576 490.272l-39.185 73.291 19.227 25.88-19.227-25.88L142.566 653l113.295-1.489 90.173-192.73-116.458 31.491Z"/><path fill="#89D3DF" d="M483.786 15.03 522.241-57 353.82-46.694 396.656 8.16l87.13 6.87ZM353.818-46.693 323.639 2.434l73.014 5.726-42.835-54.853ZM551.204 20.298 522.242-57l-38.455 72.03 67.417 5.268Z"/></g><path fill="url(#e)" fill-rule="evenodd" d="M30-5h750v658H30V-5Z" clip-rule="evenodd"/></g><path fill="#00549E" fill-rule="evenodd" d="M230 266h129v55H230v-55Z" clip-rule="evenodd"/><path fill="#fff" d="M245.291 308.885h8.602v-8.572h-8.602v8.572ZM271.924 309.5c6.725 0 10.567-2.945 13.493-6.945l-6.375-4.571c-1.878 2.241-3.712 3.736-6.9 3.736-4.279 0-7.292-3.605-7.292-8.22v-.088c0-4.483 3.013-8.176 7.292-8.176 2.97 0 4.935 1.451 6.681 3.605l6.375-4.967c-2.663-3.737-6.768-6.374-12.968-6.374-9.257 0-16.069 7.033-16.069 16v.088c0 9.187 7.03 15.912 15.763 15.912ZM289.104 308.885h8.471v-8.792h4.236c7.554 0 13.099-3.824 13.099-11.12v-.088c0-6.814-4.977-10.77-12.663-10.77h-13.143v30.77Zm8.471-15.473v-8.132h4.017c3.013 0 4.891 1.363 4.891 4v.088c0 2.462-1.878 4.044-4.847 4.044h-4.061ZM318.485 308.885h8.471v-8.792h4.235c7.554 0 13.1-3.824 13.1-11.12v-.088c0-6.814-4.978-10.77-12.663-10.77h-13.143v30.77Zm8.471-15.473v-8.132h4.017c3.013 0 4.891 1.363 4.891 4v.088c0 2.462-1.878 4.044-4.847 4.044h-4.061Z"/><defs><linearGradient id="a" x1="178.072" x2="360.986" y1="189.939" y2="304.009" gradientUnits="userSpaceOnUse"><stop stop-color="#0080CD" stop-opacity=".46"/><stop offset="1" stop-color="#470A3F" stop-opacity=".6"/></linearGradient><linearGradient id="e" x1="701.107" x2="-44.298" y1="72.553" y2="447.596" gradientUnits="userSpaceOnUse"><stop offset=".146" stop-color="#240E25" stop-opacity=".89"/><stop offset="1" stop-color="#240E25" stop-opacity="0"/></linearGradient><clipPath id="b"><path fill="#fff" d="M200 140h102v115H200z"/></clipPath><filter id="d" width="864.866" height="770" x="0" y="-77" color-interpolation-filters="sRGB" filterUnits="userSpaceOnUse"><feFlood flood-opacity="0" result="BackgroundImageFix"/><feColorMatrix in="SourceAlpha" result="hardAlpha" values="0 0 0 0 0 0 0 0 0 0 0 0 0 0 0 0 0 0 127 0"/><feOffset dy="10"/><feGaussianBlur stdDeviation="15"/><feColorMatrix values="0 0 0 0 0.0941176 0 0 0 0 0.0941176 0 0 0 0 0.0941176 0 0 0 0.2 0"/><feBlend in2="BackgroundImageFix" result="effect1_dropShadow_876_230"/><feBlend in="SourceGraphic" in2="effect1_dropShadow_876_230" result="shape"/></filter></defs></svg>