<svg xmlns="http://www.w3.org/2000/svg" width="308" height="216" fill="none"><g fill-rule="evenodd" clip-rule="evenodd" filter="url(#a)"><path fill="#F20036" d="M173.813 190.896h101.879V67.87l-20.735-20.796h-81.144v143.822Z"/><path fill="#E10029" d="m254.986 67.857 10.326-10.373 10.379 10.373v20.8l-20.705-20.8Z"/><path fill="#A8000A" d="M275.691 67.874h-20.706V47.091l20.706 20.783Z"/><path fill="#fff" d="m252.728 99.257-12.902 2.409-10.832-14.79 4.355-9.916-2.286-6.63-13.446.878-2.395 4.218 7.294 12.053-9.635 19.228-17.637 3.287-3.538 11.724 8.982 9.313 9.036-.11 7.186-16.49 18.562-5.368 4.681 7.724 10.016-.877 5.825-12.819-3.266-3.834Zm-31.682-23.393 6.968.603-2.667 5.314-4.301-5.917Zm-16.493 47.496-3.103-4.437 6.206-1.808-3.103 6.245Zm16.493-18.188 5.117-11.668 5.879 9.642-10.996 2.026Zm22.482 1.535 4.899-1.425-2.939 4.11-1.96-2.685Z"/><path fill="#A8000A" d="M207.771 142.916h79.9v31.976h-79.9v-31.976Z"/><path fill="#fff" d="M218.956 163.325v3.979h4.109v-3.979h-4.109Zm19.892-2.786a5.475 5.475 0 0 0 1.544-1.917c.374-.762.561-1.65.561-2.661v-.05c0-.896-.157-1.713-.472-2.451a5.381 5.381 0 0 0-1.352-1.903c-.587-.531-1.302-.941-2.144-1.232-.842-.289-1.799-.435-2.871-.435h-7.298v17.414h3.93v-5.224h2.986a9.972 9.972 0 0 0 2.819-.385 6.795 6.795 0 0 0 2.297-1.156Zm-2.731-6.519c.57.447.855 1.103.855 1.965v.05a2.46 2.46 0 0 1-.816 1.878c-.545.506-1.31.759-2.297.759h-3.113v-5.324h3.037c.986 0 1.764.224 2.334.672Zm21.564 10.773a8.108 8.108 0 0 0 1.952-2.762 8.556 8.556 0 0 0 .689-3.434v-.049c0-1.228-.23-2.368-.689-3.421a8.148 8.148 0 0 0-1.952-2.75c-.842-.778-1.846-1.388-3.011-1.828-1.166-.439-2.446-.659-3.841-.659h-6.966v17.414h6.966c1.395 0 2.675-.223 3.841-.671 1.165-.447 2.169-1.061 3.011-1.84Zm-1.863-8.309c.264.645.396 1.351.396 2.113v.05c0 .78-.132 1.485-.396 2.115a5.002 5.002 0 0 1-1.097 1.642 4.716 4.716 0 0 1-1.697 1.069 6.204 6.204 0 0 1-2.195.374h-3.037v-10.499h3.037c.8 0 1.531.129 2.195.385a4.9 4.9 0 0 1 1.697 1.083 4.952 4.952 0 0 1 1.097 1.668Zm11.93.621v-3.757h9.672v-3.458h-13.602v17.414h3.93v-6.741h8.523v-3.458h-8.523Z"/><path fill="#1B0B1C" d="M150.013 48.066V64.85H90.92v56.131h59.093v16.974l50.772-44.85-50.772-45.04Z"/><path fill="#fff" d="M165 86.637c0-.733-.526-1.633-1.169-2l-11.162-6.362c-.643-.367-1.695-.367-2.338 0l-11.162 6.363c-.643.366-1.169 1.266-1.169 2v12.725c0 .367.131.775.343 1.137.212.363.504.679.826.862l11.162 6.363c.331.189.771.281 1.208.275.093-.001.186-.007.277-.017a2.22 2.22 0 0 0 .853-.258l11.162-6.363c.321-.183.614-.5.825-.862.212-.362.344-.77.344-1.137V86.637Zm-13.5 15.25c-4.963 0-9-3.987-9-8.887s4.037-8.886 9-8.886c3.202 0 6.189 1.701 7.794 4.44l-3.895 2.226a4.53 4.53 0 0 0-3.899-2.223c-2.481 0-4.5 1.993-4.5 4.443 0 2.45 2.019 4.443 4.5 4.443a4.529 4.529 0 0 0 3.899-2.223l3.895 2.226c-1.605 2.739-4.592 4.441-7.794 4.441Zm9-9.38h-1v-.988h-1v.987h-1v.988h1v.987h1v-.987h1v-.988Zm3.75 0h-1v-.988h-1v.987h-1v.988h1v.987h1v-.987h1v-.988Z"/><path fill="#F49400" d="M20 158.935h101.879V35.91l-20.735-20.797H20v143.822Z"/><path fill="#F08400" d="m101.174 35.913 10.325-10.373 10.38 10.373v20.8l-20.705-20.8Z"/><path fill="#D23F00" d="M121.878 35.93h-20.705V15.149l20.705 20.783Z"/><path fill="#D24000" d="M36.982 110.941h96.878v31.976H36.982v-31.976Z"/><path fill="#FEFEFE" d="M93.132 55.886H59.558l.8 9.032h31.974l-2.408 27.08-17.982 5.01-.015.005-17.973-5.014-1.256-14.164h8.806l.656 7.35 9.772 2.651.01-.005 9.782-2.651 1.02-11.44H52.339l-2.372-26.666h43.946l-.78 8.812Z"/><path fill="#fff" d="M65.22 135.979v-7.216h-7.092v7.216h-3.845v-17.977h3.845v7.114h7.091v-7.114h3.846v17.977h-3.846Zm-19.237 0v-4.108h4.02v4.108h-4.02Zm35.117 0v-14.331h5.318v-3.646H71.936v3.646h5.319v14.331H81.1Zm21.86 0v-11.737l-4.919 7.68h-.1l-4.868-7.602v11.659h-3.796v-17.977h4.145l4.594 7.602 4.595-7.602h4.145v17.977h-3.796Zm8.355-17.977v17.977h12.56v-3.569h-8.715v-14.408h-3.845Z"/></g><defs><filter id="a" width="307.671" height="215.783" x="0" y=".113" color-interpolation-filters="sRGB" filterUnits="userSpaceOnUse"><feFlood flood-opacity="0" result="BackgroundImageFix"/><feColorMatrix in="SourceAlpha" result="hardAlpha" values="0 0 0 0 0 0 0 0 0 0 0 0 0 0 0 0 0 0 127 0"/><feOffset dy="5"/><feGaussianBlur stdDeviation="10"/><feColorMatrix values="0 0 0 0 0 0 0 0 0 0 0 0 0 0 0 0 0 0 0.15 0"/><feBlend in2="BackgroundImageFix" result="effect1_dropShadow_1_2763"/><feBlend in="SourceGraphic" in2="effect1_dropShadow_1_2763" result="shape"/></filter></defs></svg>