<svg xmlns="http://www.w3.org/2000/svg" width="113" height="43" fill="none"><path fill="#C6AAC6" d="M1.6 39.277h1.375v-8.015h2.91v-1.178H2.956v-.75c0-1.303.536-1.963 1.607-1.963.481 0 .839.089 1.338.232v-1.196c-.446-.16-.874-.232-1.517-.232-.839 0-1.5.232-1.981.714-.536.535-.804 1.32-.804 2.374v.803H.333v1.196H1.6v8.015Zm9.438.214c2.785 0 4.837-2.195 4.837-4.82v-.035c0-2.606-2.017-4.784-4.801-4.784-2.803 0-4.82 2.196-4.82 4.82v.035c0 2.606 2.017 4.784 4.784 4.784Zm.036-1.231c-1.946 0-3.41-1.607-3.41-3.588v-.036c0-1.946 1.375-3.57 3.374-3.57 1.946 0 3.427 1.624 3.427 3.606v.035c0 1.928-1.392 3.553-3.391 3.553Zm6.654 1.017h1.374V35.6c0-2.785 1.642-4.23 3.66-4.23h.107v-1.482c-1.75-.054-3.088 1.035-3.767 2.57v-2.41h-1.374v9.229Zm11.542 0h1.41v-4.41h3.035c2.66 0 4.91-1.391 4.91-4.087v-.036c0-2.463-1.857-3.962-4.678-3.962h-4.676v12.495Zm1.41-5.694v-5.498h3.16c2.017 0 3.356.928 3.356 2.713v.036c0 1.642-1.356 2.749-3.427 2.749h-3.088Zm13.764 4.159-3.356-7.694h-1.517l4.195 9.193c-.554 1.303-1.054 1.732-1.893 1.732-.589 0-1-.107-1.445-.34l-.465 1.09c.625.303 1.196.464 1.964.464 1.374 0 2.285-.697 3.07-2.607l3.874-9.532h-1.464l-2.963 7.694Zm9.052 1.696c.66 0 1.178-.125 1.66-.393v-1.178c-.482.232-.857.321-1.339.321-.928 0-1.553-.393-1.553-1.535v-5.39h2.928v-1.215h-2.928v-2.784H50.89v2.784h-1.285v1.214h1.285v5.57c0 1.874 1.106 2.606 2.606 2.606Zm3.491-.161h1.375v-5.284c0-1.731 1.178-2.892 2.766-2.892 1.643 0 2.553 1.072 2.553 2.785v5.391h1.374v-5.73c0-2.196-1.32-3.695-3.534-3.695-1.589 0-2.535.803-3.16 1.803v-5.409h-1.374v13.031Zm14.575.214c2.785 0 4.837-2.195 4.837-4.82v-.035c0-2.606-2.017-4.784-4.801-4.784-2.803 0-4.82 2.196-4.82 4.82v.035c0 2.606 2.017 4.784 4.784 4.784Zm.036-1.231c-1.946 0-3.41-1.607-3.41-3.588v-.036c0-1.946 1.375-3.57 3.374-3.57 1.946 0 3.427 1.624 3.427 3.606v.035c0 1.928-1.392 3.553-3.391 3.553Zm6.654 1.017h1.374v-5.284c0-1.731 1.178-2.892 2.767-2.892 1.642 0 2.552 1.072 2.552 2.785v5.391h1.375v-5.73c0-2.196-1.32-3.695-3.534-3.695-1.59 0-2.535.803-3.16 1.803v-1.607h-1.374v9.229ZM.333.35h3.734v17.079H.333V.286v.063Zm7.938 0h7.75c2.134 0 3.766.57 4.927 1.714a5.406 5.406 0 0 1 1.115 1.82c.248.676.36 1.396.328 2.116v.032c0 1.397-.314 2.54-1.004 3.397a5.903 5.903 0 0 1-2.604 1.905l4.11 6.127h-4.33l-3.64-5.493h-2.886v5.492H8.334V.287L8.271.35Zm7.531 8.285c.91 0 1.6-.19 2.102-.635a2.245 2.245 0 0 0 .722-1.778v-.031c0-.826-.251-1.429-.753-1.842-.534-.412-1.255-.635-2.165-.635h-3.703v4.921h3.797Zm18.199 9.111a9.168 9.168 0 0 1-6.464-2.571 8.422 8.422 0 0 1-1.896-2.847 8.5 8.5 0 0 1-.614-3.375v-.096a8.74 8.74 0 0 1 1.446-4.927A8.587 8.587 0 0 1 30.423.7a9.502 9.502 0 0 1 3.611-.7 9.168 9.168 0 0 1 6.431 2.603A8.419 8.419 0 0 1 42.36 5.45a8.5 8.5 0 0 1 .615 3.376v.031a8.74 8.74 0 0 1-1.447 4.927 8.587 8.587 0 0 1-3.95 3.232 9.226 9.226 0 0 1-3.577.73Zm0-3.492a4.939 4.939 0 0 0 1.995-.391 4.988 4.988 0 0 0 1.676-1.164 5.433 5.433 0 0 0 1.412-3.746v-.096a5.432 5.432 0 0 0-1.444-3.81 5.05 5.05 0 0 0-1.673-1.175 5.001 5.001 0 0 0-3.979.003 5.021 5.021 0 0 0-1.658 1.173 5.432 5.432 0 0 0-1.444 3.778v.031a5.72 5.72 0 0 0 1.444 3.81c.47.476 1.004.857 1.631 1.143.628.317 1.318.444 2.071.444h-.031ZM46.3.35h3.451l7.907 10.54V.349h3.64v17.08H58.16l-8.22-10.89v10.89h-3.672V.286l.032.063Zm18.859 0h6.338c.941 0 1.82.126 2.604.38a6.366 6.366 0 0 1 2.008 1.048 5.26 5.26 0 0 1 1.292 1.81c.298.69.446 1.437.434 2.19v.032c0 .952-.188 1.746-.533 2.444-.345.699-.847 1.27-1.444 1.746a6.239 6.239 0 0 1-2.102 1.048c-.816.254-1.663.35-2.573.35h-4.079v6.03H65.16V.35Zm6.118 9.333c.69 0 1.318-.095 1.883-.286a4.375 4.375 0 0 0 1.475-.762 3.435 3.435 0 0 0 1.255-2.73v-.063c0-1.207-.377-2.16-1.224-2.762-.847-.604-1.945-.953-3.294-.953h-4.3v7.556h4.205ZM81.318.349h5.868c1.317 0 2.51.191 3.64.635 1.098.445 2.039 1.048 2.823 1.81a8.002 8.002 0 0 1 1.893 2.744c.433 1.04.643 2.16.618 3.288v.063a8.66 8.66 0 0 1-.628 3.365 7.97 7.97 0 0 1-1.883 2.73 8.741 8.741 0 0 1-2.824 1.81c-1.13.444-2.322.635-3.64.635h-5.867V.349Zm5.868 15.302c1.066 0 2.008-.159 2.886-.508a6.203 6.203 0 0 0 2.177-1.391 6.291 6.291 0 0 0 1.432-2.164 7.055 7.055 0 0 0 .502-2.635v-.096c0-.952-.157-1.81-.502-2.634a6.452 6.452 0 0 0-1.432-2.19 6.363 6.363 0 0 0-2.177-1.43 7.701 7.701 0 0 0-2.886-.507H83.2v13.523h3.985v.032ZM100.207.35h12.143v1.778h-10.229v6.096h9.162V9.97h-9.193v7.46h-1.883V.286v.063Z"/></svg>