<svg xmlns="http://www.w3.org/2000/svg" width="113" height="40" fill="none"><path fill="#C6AAC6" d="M1.934 39.625h1.374V31.61h2.91v-1.178H3.29v-.75c0-1.303.536-1.963 1.607-1.963.482 0 .839.089 1.339.232v-1.196c-.446-.161-.875-.232-1.517-.232-.84 0-1.5.232-1.982.714-.535.535-.803 1.32-.803 2.374v.803H.667v1.196h1.267v8.015Zm9.437.214c2.785 0 4.838-2.196 4.838-4.82v-.035c0-2.607-2.017-4.784-4.802-4.784-2.802 0-4.82 2.195-4.82 4.82v.035c0 2.606 2.018 4.784 4.784 4.784Zm.036-1.232c-1.946 0-3.41-1.606-3.41-3.588v-.035c0-1.946 1.375-3.57 3.374-3.57 1.946 0 3.428 1.624 3.428 3.605v.036c0 1.928-1.393 3.552-3.392 3.552Zm6.654 1.018h1.375v-3.678c0-2.784 1.642-4.23 3.659-4.23h.107v-1.482c-1.75-.053-3.088 1.036-3.766 2.57v-2.409H18.06v9.229Zm11.543 0h1.375V29.379l8.068 10.246h1.124V27.13h-1.374v10.014L30.925 27.13h-1.32v12.495Zm17.446.214c2.784 0 4.837-2.196 4.837-4.82v-.035c0-2.607-2.017-4.784-4.802-4.784-2.802 0-4.82 2.195-4.82 4.82v.035c0 2.606 2.018 4.784 4.785 4.784Zm.035-1.232c-1.945 0-3.41-1.606-3.41-3.588v-.035c0-1.946 1.375-3.57 3.375-3.57 1.945 0 3.427 1.624 3.427 3.605v.036c0 1.928-1.392 3.552-3.392 3.552Zm10.528 1.214c1.714 0 2.767-.946 3.534-2.053v1.857h1.375V26.594h-1.375v5.57c-.714-1.054-1.82-1.964-3.534-1.964-2.214 0-4.41 1.803-4.41 4.802v.035c0 3.035 2.196 4.784 4.41 4.784Zm.25-1.232c-1.767 0-3.249-1.374-3.249-3.57v-.035c0-2.232 1.464-3.553 3.249-3.553 1.713 0 3.338 1.428 3.338 3.553v.035c0 2.125-1.625 3.57-3.338 3.57Zm11.127 1.25c1.767 0 2.874-.678 3.802-1.732l-.857-.767c-.768.785-1.624 1.303-2.91 1.303-1.642 0-3.052-1.125-3.248-3.124h7.318c.018-.16.018-.25.018-.446 0-2.696-1.57-4.873-4.302-4.873-2.57 0-4.427 2.142-4.427 4.802v.035c0 2.856 2.089 4.802 4.606 4.802Zm-3.213-5.337c.196-1.785 1.374-3.142 2.998-3.142 1.857 0 2.803 1.482 2.946 3.142h-5.944Zm11.979 5.301c1.124 0 2.035-.339 2.749-1.035.714-.714 1.142-1.803 1.142-3.285V27.13h-1.428v8.37c0 1.982-1.035 3-2.445 3-1.304 0-2.089-.626-2.857-1.786l-1.017.875c.785 1.285 1.981 2.213 3.856 2.213Zm10.871 0c2.481 0 4.266-1.392 4.266-3.534v-.036c0-1.91-1.285-2.91-4.07-3.534-2.767-.571-3.391-1.25-3.391-2.428v-.036c0-1.142 1.017-2.017 2.66-2.017 1.284 0 2.445.41 3.605 1.357l.821-1.089c-1.285-1.017-2.552-1.535-4.391-1.535-2.374 0-4.106 1.464-4.106 3.41v.035c0 2.053 1.321 2.981 4.195 3.606 2.624.571 3.249 1.214 3.249 2.374v.036c0 1.231-1.089 2.124-2.785 2.124-1.731 0-2.98-.571-4.284-1.767l-.874 1.035c1.5 1.357 3.106 2 5.105 2ZM.667.697H4.4v17.08H.667V.633v.063Zm7.938 0h7.75c2.134 0 3.765.572 4.926 1.714a5.406 5.406 0 0 1 1.116 1.82 5.45 5.45 0 0 1 .328 2.117v.032c0 1.396-.314 2.54-1.004 3.396a5.903 5.903 0 0 1-2.605 1.905l4.11 6.127h-4.33l-3.64-5.492H12.37v5.492H8.668V.634l-.063.063Zm7.53 8.286c.91 0 1.6-.19 2.103-.635a2.245 2.245 0 0 0 .722-1.778v-.032c0-.825-.252-1.428-.754-1.84-.533-.414-1.255-.636-2.165-.636H12.34v4.92h3.796Zm18.2 9.111a9.167 9.167 0 0 1-6.465-2.572 8.418 8.418 0 0 1-1.895-2.846A8.5 8.5 0 0 1 25.36 9.3v-.095a8.74 8.74 0 0 1 1.447-4.927 8.587 8.587 0 0 1 3.95-3.232 9.501 9.501 0 0 1 3.609-.698 9.168 9.168 0 0 1 6.432 2.603 8.42 8.42 0 0 1 1.896 2.847 8.5 8.5 0 0 1 .614 3.375v.032a8.74 8.74 0 0 1-1.446 4.927 8.586 8.586 0 0 1-3.95 3.232 9.225 9.225 0 0 1-3.578.73Zm0-3.492a4.939 4.939 0 0 0 1.995-.391 4.99 4.99 0 0 0 1.675-1.165A5.433 5.433 0 0 0 39.417 9.3v-.095a5.432 5.432 0 0 0-1.443-3.81A5.05 5.05 0 0 0 36.3 4.22a5.001 5.001 0 0 0-3.978.004 5.021 5.021 0 0 0-1.659 1.173 5.432 5.432 0 0 0-1.443 3.777v.032a5.72 5.72 0 0 0 1.443 3.81 5.42 5.42 0 0 0 1.632 1.143c.627.317 1.318.444 2.07.444h-.03ZM46.634.697h3.45l7.908 10.54V.697h3.64v17.08h-3.138l-8.221-10.89v10.89h-3.671V.633l.031.063Zm18.858 0h6.339c.94 0 1.82.127 2.604.381a6.366 6.366 0 0 1 2.008 1.048c.553.503.994 1.12 1.291 1.81.298.69.446 1.437.435 2.19v.032c0 .952-.188 1.746-.534 2.444-.345.698-.847 1.27-1.443 1.746-.63.48-1.343.835-2.102 1.048-.816.254-1.663.349-2.573.349h-4.08v6.032h-1.945V.697Zm6.119 9.334c.69 0 1.318-.096 1.883-.286a4.375 4.375 0 0 0 1.474-.762c.401-.328.722-.745.94-1.218.217-.473.325-.99.315-1.512v-.064c0-1.206-.376-2.158-1.223-2.762-.847-.603-1.946-.952-3.295-.952h-4.299v7.556h4.205ZM81.65.697h5.868c1.318 0 2.51.19 3.64.635 1.098.445 2.04 1.048 2.824 1.81a8.002 8.002 0 0 1 1.892 2.744 8.07 8.07 0 0 1 .618 3.287v.064a8.661 8.661 0 0 1-.627 3.365 7.97 7.97 0 0 1-1.883 2.73 8.742 8.742 0 0 1-2.824 1.81c-1.13.444-2.322.635-3.64.635h-5.867V.697ZM87.52 16c1.067 0 2.008-.159 2.887-.508a6.203 6.203 0 0 0 2.176-1.391 6.291 6.291 0 0 0 1.432-2.165 7.055 7.055 0 0 0 .502-2.635v-.095c0-.952-.157-1.81-.502-2.635a6.453 6.453 0 0 0-1.432-2.189 6.363 6.363 0 0 0-2.176-1.43 7.701 7.701 0 0 0-2.887-.508h-3.985v13.524h3.985V16ZM100.541.697h12.143v1.778h-10.229V8.57h9.162v1.746h-9.194v7.46h-1.882V.635v.063Z"/></svg>