<svg xmlns="http://www.w3.org/2000/svg" width="166" height="40" fill="none"><path fill="#fff" d="M52.688 11.174h3.758v17.08h-3.758V11.11v.063Zm7.988 0h7.798c2.147 0 3.789.572 4.957 1.715a5.402 5.402 0 0 1 1.452 3.936v.032c0 1.397-.316 2.54-1.01 3.397a5.937 5.937 0 0 1-2.62 1.904l4.135 6.127h-4.357l-3.662-5.492h-2.904v5.492h-3.726V11.111l-.063.063Zm7.577 8.286c.916 0 1.61-.19 2.115-.635a2.222 2.222 0 0 0 .727-1.778v-.031c0-.826-.253-1.429-.758-1.842-.537-.412-1.263-.635-2.179-.635h-3.725v4.921h3.82Zm18.311 9.111A9.255 9.255 0 0 1 80.061 26a8.418 8.418 0 0 1-1.908-2.847 8.457 8.457 0 0 1-.618-3.375v-.096a8.702 8.702 0 0 1 1.456-4.927 8.63 8.63 0 0 1 3.974-3.231 9.61 9.61 0 0 1 3.631-.699 9.255 9.255 0 0 1 6.472 2.603 8.418 8.418 0 0 1 1.908 2.847c.434 1.07.645 2.22.618 3.376v.031a8.7 8.7 0 0 1-1.456 4.927 8.63 8.63 0 0 1-3.975 3.232 9.332 9.332 0 0 1-3.599.73Zm0-3.492a4.996 4.996 0 0 0 3.694-1.555 5.414 5.414 0 0 0 1.421-3.747v-.095a5.414 5.414 0 0 0-1.452-3.81 5.084 5.084 0 0 0-3.694-1.586 5.03 5.03 0 0 0-3.662 1.587 5.413 5.413 0 0 0-1.453 3.778v.031a5.7 5.7 0 0 0 1.453 3.81c.473.476 1.01.857 1.641 1.143.632.317 1.326.444 2.084.444h-.032ZM98.94 11.174h3.473l7.956 10.54v-10.54h3.662v17.08h-3.157l-8.271-10.89v10.89h-3.694V11.11l.031.063Z"/><path fill="#E01A59" d="M117.915 11.175h6.377c.948 0 1.832.127 2.621.38a6.413 6.413 0 0 1 2.02 1.048 5.273 5.273 0 0 1 1.737 4v.032c0 .952-.19 1.746-.537 2.444-.347.699-.852 1.27-1.452 1.747a6.305 6.305 0 0 1-2.115 1.047c-.821.254-1.674.35-2.589.35h-4.105v6.031h-1.957V11.175Zm6.156 9.333a5.94 5.94 0 0 0 1.895-.286 4.421 4.421 0 0 0 1.484-.762 3.429 3.429 0 0 0 1.262-2.73v-.063c0-1.207-.378-2.159-1.231-2.762-.852-.603-1.957-.952-3.315-.952h-4.325v7.555h4.23Zm10.103-9.333h5.904c1.326 0 2.526.19 3.662.635 1.105.444 2.052 1.047 2.842 1.81a7.998 7.998 0 0 1 1.904 2.743c.435 1.04.647 2.16.621 3.288v.063a8.617 8.617 0 0 1-.631 3.366 7.972 7.972 0 0 1-1.894 2.73 8.805 8.805 0 0 1-2.842 1.81c-1.136.444-2.336.634-3.662.634h-5.904V11.175Zm5.904 15.301c1.073 0 2.021-.158 2.905-.508a6.267 6.267 0 0 0 3.63-3.555 7.013 7.013 0 0 0 .505-2.635v-.095c0-.953-.157-1.81-.505-2.635a6.445 6.445 0 0 0-1.441-2.19 6.403 6.403 0 0 0-2.189-1.43 7.797 7.797 0 0 0-2.905-.507h-4.01v13.524h4.01v.031Zm13.102-15.301h12.218v1.777h-10.292v6.096h9.219v1.746h-9.251v7.46h-1.894V11.111v.064Z"/><path fill="#FDA509" d="m47.293 9.111-1.831 6.826H29.234l1.831-6.826h16.228Z"/><path fill="#63C1A0" d="m18.027 24.032-1.8 6.762H0L1.831 24l16.196.032Z"/><path fill="#89D3DF" d="M36.275 15.937h-7.04L33.495 0h7.01l-4.231 15.937Z"/><path fill="#E01A59" d="M13.8 40H6.793l4.23-15.968h7.01L13.8 40Z"/><path fill="#FDA509" d="m22.006 9.111-1.831 6.826H3.979l1.8-6.826h16.227Z"/><path fill="#E01A59" d="M20.17 15.937h-7.008L17.424 0h7.04l-4.293 15.937Z"/><path fill="#89D3DF" d="M29.833 40h-7.009l4.23-15.968h7.041L29.833 40Z"/><path fill="#63C1A0" d="m43.322 24.032-1.8 6.761H25.296L27.063 24l16.26.032Z"/><path fill="#331433" d="M32.27 30.794H9.225L15 9.11H38.08l-5.81 21.683Z"/><path fill="#fff" d="M20.366 19.062v-.017c0-.302-.052-.576-.158-.823a1.74 1.74 0 0 0-.443-.646 1.896 1.896 0 0 0-.701-.412 2.69 2.69 0 0 0-.936-.15H15.74v5.877h1.286v-1.763h.977c.329 0 .635-.042.919-.126.29-.09.54-.221.751-.395.217-.174.387-.39.51-.647a2.07 2.07 0 0 0 .183-.898Zm-1.302.025a.856.856 0 0 1-.267.638c-.179.168-.43.252-.752.252h-1.019V18.18h.994c.323 0 .576.076.76.227.19.151.284.372.284.663v.017ZM26.704 19.952v-.017c0-.414-.075-.797-.225-1.15a2.71 2.71 0 0 0-.643-.932 2.857 2.857 0 0 0-.986-.613 3.35 3.35 0 0 0-1.252-.227h-2.28v5.878h2.28a3.35 3.35 0 0 0 1.252-.227c.384-.15.713-.358.986-.621a2.71 2.71 0 0 0 .643-.932c.15-.358.225-.745.225-1.159Zm-1.344.017c0 .263-.045.5-.134.714a1.61 1.61 0 0 1-.91.915 1.975 1.975 0 0 1-.718.126h-.994V18.18h.994c.262 0 .5.045.718.135.217.084.4.204.551.36.156.157.276.345.36.563.088.219.133.457.133.714v.017ZM32.3 18.189v-1.176h-4.45v5.878h1.286v-2.276h2.79V19.44h-2.79v-1.251h3.165Z"/></svg>