<svg xmlns="http://www.w3.org/2000/svg" width="113" height="40" fill="none"><path fill="#C6AAC6" d="M1.264 39.613h1.371v-8h2.902v-1.177h-2.92v-.748c0-1.3.534-1.96 1.603-1.96.48 0 .837.089 1.335.232v-1.194c-.445-.16-.872-.232-1.513-.232-.837 0-1.496.232-1.977.713-.534.534-.8 1.319-.8 2.37v.802H0v1.194h1.264v8Zm9.382.214c2.777 0 4.825-2.191 4.825-4.81v-.037c0-2.601-2.012-4.775-4.79-4.775-2.795 0-4.807 2.192-4.807 4.811v.036c0 2.601 2.012 4.775 4.772 4.775Zm.035-1.23c-1.94 0-3.4-1.603-3.4-3.58v-.037c0-1.942 1.37-3.563 3.365-3.563 1.94 0 3.418 1.621 3.418 3.6v.035c0 1.924-1.388 3.546-3.383 3.546Zm6.606 1.016h1.37v-3.67c0-2.78 1.639-4.223 3.65-4.223h.108v-1.48c-1.745-.053-3.08 1.034-3.757 2.567V30.4h-1.371v9.212Zm14.085.179c1.121 0 2.03-.339 2.742-1.034.712-.713 1.14-1.8 1.14-3.279v-8.34h-1.425v8.358c0 1.978-1.033 2.994-2.44 2.994-1.3 0-2.083-.624-2.848-1.782l-1.015.873c.783 1.283 1.976 2.21 3.846 2.21Zm9.048.018c1.639 0 2.69-.749 3.33-1.587v1.39h1.318v-5.63c0-1.159-.32-2.067-.944-2.691-.676-.677-1.673-1.016-2.973-1.016-1.353 0-2.333.285-3.348.766l.41 1.123c.855-.41 1.71-.677 2.795-.677 1.727 0 2.742.855 2.742 2.512v.321a9.765 9.765 0 0 0-2.83-.392c-2.333 0-3.936 1.051-3.936 2.976v.035c0 1.907 1.727 2.87 3.437 2.87Zm.268-1.088c-1.229 0-2.315-.677-2.315-1.835v-.036c0-1.158.962-1.906 2.689-1.906 1.14 0 2.012.196 2.706.392v.89c0 1.462-1.37 2.495-3.08 2.495Zm9.366.963h1.211l4.006-9.284h-1.477l-3.116 7.644-3.098-7.644h-1.514l3.988 9.284Zm8.992.125c1.638 0 2.689-.749 3.33-1.587v1.39h1.317v-5.63c0-1.159-.32-2.067-.943-2.691-.677-.677-1.674-1.016-2.974-1.016-1.353 0-2.332.285-3.347.766l.41 1.123c.854-.41 1.709-.677 2.795-.677 1.727 0 2.742.855 2.742 2.512v.321a9.765 9.765 0 0 0-2.831-.392c-2.333 0-3.935 1.051-3.935 2.976v.035c0 1.907 1.727 2.87 3.436 2.87Zm.267-1.088c-1.228 0-2.314-.677-2.314-1.835v-.036c0-1.158.961-1.906 2.688-1.906 1.14 0 2.012.196 2.707.392v.89c0 1.462-1.371 2.495-3.08 2.495ZM0 .709h3.734v17.079H0V.645.71Zm7.938 0h7.75c2.134 0 3.766.571 4.927 1.714a5.406 5.406 0 0 1 1.115 1.82c.248.676.36 1.396.328 2.116v.032c0 1.397-.314 2.54-1.004 3.397a5.902 5.902 0 0 1-2.604 1.905l4.11 6.127h-4.33l-3.64-5.492h-2.886v5.492H8V.645L7.938.71Zm7.531 8.285c.91 0 1.6-.19 2.102-.635a2.223 2.223 0 0 0 .722-1.777V6.55c0-.826-.251-1.429-.753-1.841-.534-.413-1.255-.635-2.165-.635h-3.703v4.92h3.797Zm18.199 9.111a9.167 9.167 0 0 1-6.464-2.571 8.418 8.418 0 0 1-1.896-2.847 8.5 8.5 0 0 1-.614-3.375v-.095a8.74 8.74 0 0 1 1.446-4.928 8.587 8.587 0 0 1 3.95-3.231A9.502 9.502 0 0 1 33.7.359a9.168 9.168 0 0 1 6.431 2.604 8.42 8.42 0 0 1 1.896 2.846 8.5 8.5 0 0 1 .615 3.376v.032a8.74 8.74 0 0 1-1.447 4.927 8.586 8.586 0 0 1-3.95 3.231 9.227 9.227 0 0 1-3.577.73Zm0-3.492a4.939 4.939 0 0 0 1.995-.391 4.988 4.988 0 0 0 1.676-1.164 5.433 5.433 0 0 0 1.412-3.746v-.095a5.433 5.433 0 0 0-1.444-3.81 5.05 5.05 0 0 0-1.674-1.176 5.001 5.001 0 0 0-3.978.004 5.021 5.021 0 0 0-1.658 1.172 5.432 5.432 0 0 0-1.444 3.778v.032a5.72 5.72 0 0 0 1.444 3.81c.47.475 1.004.856 1.631 1.142.628.317 1.318.444 2.071.444h-.031ZM45.968.71h3.451l7.907 10.54V.708h3.64v17.079h-3.138l-8.22-10.889v10.889h-3.672V.645l.032.064ZM64.826.709h6.338c.941 0 1.82.127 2.604.38a6.366 6.366 0 0 1 2.008 1.048 5.273 5.273 0 0 1 1.292 1.811c.298.69.446 1.437.434 2.19v.031c0 .952-.188 1.746-.533 2.445-.345.698-.847 1.27-1.444 1.746a6.218 6.218 0 0 1-2.102 1.047c-.816.254-1.663.35-2.573.35h-4.079v6.031h-1.945V.708Zm6.118 9.333c.69 0 1.318-.095 1.883-.286a4.375 4.375 0 0 0 1.475-.762 3.435 3.435 0 0 0 1.255-2.73v-.063c0-1.207-.377-2.159-1.224-2.762-.847-.603-1.945-.952-3.294-.952h-4.3v7.555h4.205ZM80.985.71h5.868c1.318 0 2.51.19 3.64.635 1.098.444 2.039 1.047 2.823 1.81a8.002 8.002 0 0 1 1.893 2.743c.433 1.04.643 2.16.618 3.288v.063a8.661 8.661 0 0 1-.628 3.366 7.97 7.97 0 0 1-1.883 2.73 8.742 8.742 0 0 1-2.824 1.81c-1.13.444-2.322.634-3.64.634h-5.867V.708Zm5.868 15.301c1.067 0 2.008-.158 2.886-.508a6.205 6.205 0 0 0 2.177-1.39 6.29 6.29 0 0 0 1.432-2.165 7.056 7.056 0 0 0 .502-2.635v-.095c0-.953-.157-1.81-.502-2.635a6.453 6.453 0 0 0-1.432-2.19 6.363 6.363 0 0 0-2.177-1.43 7.7 7.7 0 0 0-2.886-.507h-3.985V15.98h3.985v.031ZM99.874.71h12.143v1.778h-10.229v6.095h9.162v1.746h-9.193v7.46h-1.883V.645.71Z"/></svg>