<svg xmlns="http://www.w3.org/2000/svg" width="115" height="15" fill="none"><path fill="#fff" d="m6.07.123-.845 3.255H2.023L1.38 5.784h5.657l.644-2.406h-.019L8.51.123H6.07ZM16.282 3.378l-.69 2.406H9.935l.644-2.406.873-3.255h2.438l-.846 3.255h3.238ZM6.28 8.741l.021-.08H.598L0 11.116h3.185l-.84 3.255H4.83L6.28 8.74ZM14.212 11.115l.644-2.453H9.198l-.644 2.453h.012l-.839 3.255h2.438l.839-3.255h3.208Z"/><path fill="#fff" fill-rule="evenodd" d="M36.307 11.255c-.593 0-1.14-.102-1.639-.308a4.277 4.277 0 0 1-1.297-.847 3.987 3.987 0 0 1-.848-1.254 4.056 4.056 0 0 1-.297-1.55v-.023c0-.55.103-1.063.309-1.54.205-.484.487-.905.847-1.265a3.93 3.93 0 0 1 1.297-.858 4.215 4.215 0 0 1 1.65-.319c.594 0 1.14.107 1.64.32.498.205.927.487 1.286.846.367.352.65.77.847 1.254.206.477.309.99.309 1.54v.022c0 .55-.103 1.067-.309 1.551a4.025 4.025 0 0 1-.857 1.265c-.36.36-.792.646-1.298.858a4.264 4.264 0 0 1-1.64.308Zm.023-1.562c.337 0 .648-.062.934-.187.286-.124.528-.297.726-.517.206-.22.363-.473.474-.759.117-.293.175-.605.175-.935v-.022c0-.33-.058-.641-.175-.935a2.212 2.212 0 0 0-.484-.77 2.195 2.195 0 0 0-.737-.517 2.204 2.204 0 0 0-.936-.198c-.344 0-.66.063-.946.187-.278.125-.52.297-.725.517-.199.22-.356.477-.474.77-.11.286-.164.594-.164.924v.022c0 .33.055.642.165.935.117.294.278.55.484.77.212.22.458.396.736.528.286.125.602.187.947.187Z" clip-rule="evenodd"/><path fill="#fff" d="M22.694 3.423H21v7.7h1.694v-7.7Z"/><path fill="#fff" fill-rule="evenodd" d="M28.138 3.423h-3.52v7.7h1.694V8.66h1.331l1.65 2.464h1.98l-1.88-2.75c.49-.183.887-.47 1.187-.858.308-.396.462-.905.462-1.529v-.022c0-.733-.22-1.32-.66-1.76-.52-.52-1.268-.78-2.244-.78Zm.847 3.443c-.22.198-.539.297-.957.297h-1.716v-2.21h1.683c.418 0 .745.09.98.274.234.184.351.459.351.825v.022c0 .33-.113.594-.34.792Z" clip-rule="evenodd"/><path fill="#fff" d="M43.475 3.423h-1.562v7.7h1.672V6.228l3.73 4.895h1.44v-7.7h-1.672v4.741l-3.608-4.74ZM51.44 5.348c0-.176.036-.34.11-.495.08-.154.19-.286.33-.396.146-.11.319-.198.517-.264a2.22 2.22 0 0 1 .682-.099c.396 0 .773.066 1.133.198.366.132.73.345 1.089.638l.506-.67a4.366 4.366 0 0 0-1.232-.705c-.418-.161-.91-.242-1.474-.242a2.99 2.99 0 0 0-1.012.165 2.43 2.43 0 0 0-.803.44 1.912 1.912 0 0 0-.528.66 1.912 1.912 0 0 0-.187.847c0 .323.051.602.154.836.102.235.26.44.473.616.212.176.48.327.803.451.33.125.715.235 1.155.33.403.088.733.18.99.275.264.096.469.202.616.32.146.117.249.249.308.395.058.14.088.3.088.484 0 .396-.158.715-.473.957-.308.242-.723.363-1.243.363-.536 0-1.009-.088-1.42-.264a4.658 4.658 0 0 1-1.22-.825l-.54.638c.463.418.947.73 1.453.935a4.67 4.67 0 0 0 1.694.297 3.47 3.47 0 0 0 1.056-.154c.322-.102.597-.25.825-.44.234-.19.418-.421.55-.693.132-.271.198-.572.198-.902 0-.594-.206-1.06-.616-1.397-.404-.337-1.034-.601-1.892-.792a8.326 8.326 0 0 1-1.045-.275 2.555 2.555 0 0 1-.638-.33 1.019 1.019 0 0 1-.32-.407 1.322 1.322 0 0 1-.087-.495Z"/><path fill="#fff" fill-rule="evenodd" d="M65.032 5.744c.19.477.286.983.286 1.518 0 .536-.096 1.045-.286 1.53a3.9 3.9 0 0 1-2.046 2.145 3.95 3.95 0 0 1-1.606.318 3.95 3.95 0 0 1-1.606-.319 3.875 3.875 0 0 1-1.232-.858 3.996 3.996 0 0 1-.803-1.265 4.28 4.28 0 0 1-.275-1.529c0-.535.095-1.041.286-1.518.19-.484.458-.91.803-1.276a3.76 3.76 0 0 1 1.243-.869c.484-.22 1.02-.33 1.606-.33.587 0 1.118.107 1.595.32a3.76 3.76 0 0 1 1.243.868c.345.36.609.781.792 1.265Zm-.847 2.783c.154-.388.23-.803.23-1.243 0-.44-.076-.854-.23-1.243a2.982 2.982 0 0 0-.627-1.012 3.043 3.043 0 0 0-.968-.682 2.86 2.86 0 0 0-1.21-.253c-.44 0-.847.085-1.221.253a2.813 2.813 0 0 0-.946.671 3.228 3.228 0 0 0-.627 1.012c-.147.382-.22.792-.22 1.232 0 .44.073.855.22 1.243.154.389.367.726.638 1.012a2.936 2.936 0 0 0 2.178.935c.44 0 .843-.08 1.21-.242.374-.168.693-.396.957-.682a3.1 3.1 0 0 0 .616-1Z" clip-rule="evenodd"/><path fill="#fff" d="M72.683 3.423H67.15v7.7h.87V7.768h4.169v-.792h-4.17v-2.75h4.664v-.803ZM79.87 4.226h-2.586v6.897h-.88V4.226H73.82v-.803h6.05v.803ZM84.054 9.836l-2.2-6.413h-.946l2.75 7.755h.726l2.123-6.248 2.112 6.248h.737l2.75-7.755h-.913l-2.2 6.413-2.112-6.435h-.715l-2.112 6.435Z"/><path fill="#fff" fill-rule="evenodd" d="M95.544 3.368h.814l3.51 7.755h-.936l-.902-2.035h-4.19l-.914 2.035h-.89l3.508-7.755Zm-1.364 4.94h3.51L95.94 4.38l-1.76 3.927ZM107.755 11.123l-2.365-3.146c.301-.051.579-.14.836-.264s.477-.278.66-.462c.191-.19.337-.41.44-.66.103-.256.154-.546.154-.869 0-.344-.066-.656-.198-.935a2.019 2.019 0 0 0-.561-.726 2.529 2.529 0 0 0-.88-.473 3.682 3.682 0 0 0-1.144-.165h-3.311v7.7h.869V8.131h2.2l2.233 2.992h1.067ZM106.6 5.755c0 .25-.051.473-.154.671a1.426 1.426 0 0 1-.407.506 2.002 2.002 0 0 1-.627.308 2.72 2.72 0 0 1-.792.11h-2.365V4.226h2.376c.623 0 1.107.136 1.452.407.345.264.517.638.517 1.122Z" clip-rule="evenodd"/><path fill="#fff" d="M109.335 3.423h5.566v.792h-4.697v2.63h4.202v.791h-4.202v2.695h4.752v.792h-5.621v-7.7Z"/></svg>